<?xml version="1.0" encoding="UTF-8" standalone="no"?>
<svg
   xmlns:dc="http://purl.org/dc/elements/1.1/"
   xmlns:cc="http://creativecommons.org/ns#"
   xmlns:rdf="http://www.w3.org/1999/02/22-rdf-syntax-ns#"
   xmlns:svg="http://www.w3.org/2000/svg"
   xmlns="http://www.w3.org/2000/svg"
   xmlns:sodipodi="http://sodipodi.sourceforge.net/DTD/sodipodi-0.dtd"
   xmlns:inkscape="http://www.inkscape.org/namespaces/inkscape"
   aria-labelledby="outbound-link-title"
   role="img"
   focusable="false"
   x="0px"
   y="0px"
   viewBox="0 0 83.333333 83.333333"
   width="12.5"
   height="12.5"
   style="color:#aaaaaa"
   version="1.1"
   id="svg6"
   sodipodi:docname="outbound-smaller.svg"
   inkscape:version="0.92.4 (5da689c313, 2019-01-14)">
  <metadata
     id="metadata12">
    <rdf:RDF>
      <cc:Work
         rdf:about="">
        <dc:format>image/svg+xml</dc:format>
        <dc:type
           rdf:resource="http://purl.org/dc/dcmitype/StillImage" />
        <dc:title></dc:title>
      </cc:Work>
    </rdf:RDF>
  </metadata>
  <defs
     id="defs10" />
  <sodipodi:namedview
     pagecolor="#ffffff"
     bordercolor="#666666"
     borderopacity="1"
     objecttolerance="10"
     gridtolerance="10"
     guidetolerance="10"
     inkscape:pageopacity="0"
     inkscape:pageshadow="2"
     inkscape:window-width="3840"
     inkscape:window-height="2035"
     id="namedview8"
     showgrid="false"
     inkscape:zoom="15.733333"
     inkscape:cx="7.2457627"
     inkscape:cy="7.5"
     inkscape:window-x="-13"
     inkscape:window-y="-13"
     inkscape:window-maximized="1"
     inkscape:current-layer="svg6" />
  <path
     d="m 15.666665,70.913333 h 46.666648 v 0 c 1.833333,0 3.333332,-1.499999 3.333332,-3.333332 V 40.913345 H 58.999981 V 64.246669 H 18.999997 V 24.246685 H 42.333321 V 17.580021 H 15.666665 v 0 c -1.833332,0 -3.333332,1.5 -3.333332,3.333332 v 46.666648 c 0,1.833333 1.5,3.333332 3.333332,3.333332 z"
     id="path2"
     inkscape:connector-curvature="0"
     style="fill:currentColor;stroke-width:0.83333302" />
  <polygon
     points="45.7,48.7 51.3,54.3 77.2,28.5 77.2,37.2 85.2,37.2 85.2,14.9 62.8,14.9 62.8,22.9 71.5,22.9 "
     id="polygon4"
     transform="matrix(0.833333,0,0,0.833333,5.284e-6,-0.00330455)"
     style="fill:currentColor" />
</svg>
